<svg width="64" height="64" viewBox="0 0 64 64" fill="none" xmlns="http://www.w3.org/2000/svg">
<g filter="url(#filter0_i_36_2217)">
<mask id="path-1-inside-1_36_2217" fill="white">
<path d="M0 12C0 5.37258 5.37258 0 12 0H52C58.6274 0 64 5.37258 64 12V52C64 58.6274 58.6274 64 52 64H12C5.37258 64 0 58.6274 0 52V12Z"/>
</mask>
<path d="M0 12C0 5.37258 5.37258 0 12 0H52C58.6274 0 64 5.37258 64 12V52C64 58.6274 58.6274 64 52 64H12C5.37258 64 0 58.6274 0 52V12Z" fill="white" fill-opacity="0.07"/>
<path d="M12 0V1H52V0V-1H12V0ZM64 12H63V52H64H65V12H64ZM52 64V63H12V64V65H52V64ZM0 52H1V12H0H-1V52H0ZM12 64V63C5.92487 63 1 58.0751 1 52H0H-1C-1 59.1797 4.8203 65 12 65V64ZM64 52H63C63 58.0751 58.0751 63 52 63V64V65C59.1797 65 65 59.1797 65 52H64ZM52 0V1C58.0751 1 63 5.92487 63 12H64H65C65 4.8203 59.1797 -1 52 -1V0ZM12 0V-1C4.8203 -1 -1 4.8203 -1 12H0H1C1 5.92487 5.92487 1 12 1V0Z" fill="white" fill-opacity="0.1" mask="url(#path-1-inside-1_36_2217)"/>
<g clip-path="url(#clip0_36_2217)">
<path d="M8 30.54C8 19.6788 8 14.2483 11.3741 10.8741C14.7483 7.5 20.1788 7.5 31.04 7.5H32.96C43.8212 7.5 49.2517 7.5 52.6259 10.8741C56 14.2483 56 19.6788 56 30.54V32.46C56 43.3212 56 48.7517 52.6259 52.1259C49.2517 55.5 43.8212 55.5 32.96 55.5H31.04C20.1788 55.5 14.7483 55.5 11.3741 52.1259C8 48.7517 8 43.3212 8 32.46V30.54Z" fill="#0077FF"/>
<path d="M33.54 42.0801C22.6 42.0801 16.3601 34.5801 16.1001 22.1001H21.5801C21.7601 31.2601 25.8 35.1401 29 35.9401V22.1001H34.1602V30.0001C37.3202 29.6601 40.6398 26.0601 41.7598 22.1001H46.9199C46.0599 26.9801 42.4599 30.5801 39.8999 32.0601C42.4599 33.2601 46.5601 36.4001 48.1201 42.0801H42.4399C41.2199 38.2801 38.1802 35.3401 34.1602 34.9401V42.0801H33.54Z" fill="white"/>
</g>
</g>
<defs>
<filter id="filter0_i_36_2217" x="0" y="0" width="64" height="65" filterUnits="userSpaceOnUse" color-interpolation-filters="sRGB">
<feFlood flood-opacity="0" result="BackgroundImageFix"/>
<feBlend mode="normal" in="SourceGraphic" in2="BackgroundImageFix" result="shape"/>
<feColorMatrix in="SourceAlpha" type="matrix" values="0 0 0 0 0 0 0 0 0 0 0 0 0 0 0 0 0 0 127 0" result="hardAlpha"/>
<feMorphology radius="1" operator="erode" in="SourceAlpha" result="effect1_innerShadow_36_2217"/>
<feOffset dy="1"/>
<feComposite in2="hardAlpha" operator="arithmetic" k2="-1" k3="1"/>
<feColorMatrix type="matrix" values="0 0 0 0 1 0 0 0 0 1 0 0 0 0 1 0 0 0 0.06 0"/>
<feBlend mode="normal" in2="shape" result="effect1_innerShadow_36_2217"/>
</filter>
<clipPath id="clip0_36_2217">
<rect width="48" height="48" fill="white" transform="translate(8 7.5)"/>
</clipPath>
</defs>
</svg>
