<svg width="64" height="64" viewBox="0 0 64 64" fill="none" xmlns="http://www.w3.org/2000/svg">
<g filter="url(#filter0_i_36_2221)">
<mask id="path-1-inside-1_36_2221" fill="white">
<path d="M0 12C0 5.37258 5.37258 0 12 0H52C58.6274 0 64 5.37258 64 12V52C64 58.6274 58.6274 64 52 64H12C5.37258 64 0 58.6274 0 52V12Z"/>
</mask>
<path d="M0 12C0 5.37258 5.37258 0 12 0H52C58.6274 0 64 5.37258 64 12V52C64 58.6274 58.6274 64 52 64H12C5.37258 64 0 58.6274 0 52V12Z" fill="white" fill-opacity="0.07"/>
<path d="M12 0V1H52V0V-1H12V0ZM64 12H63V52H64H65V12H64ZM52 64V63H12V64V65H52V64ZM0 52H1V12H0H-1V52H0ZM12 64V63C5.92487 63 1 58.0751 1 52H0H-1C-1 59.1797 4.8203 65 12 65V64ZM64 52H63C63 58.0751 58.0751 63 52 63V64V65C59.1797 65 65 59.1797 65 52H64ZM52 0V1C58.0751 1 63 5.92487 63 12H64H65C65 4.8203 59.1797 -1 52 -1V0ZM12 0V-1C4.8203 -1 -1 4.8203 -1 12H0H1C1 5.92487 5.92487 1 12 1V0Z" fill="white" fill-opacity="0.1" mask="url(#path-1-inside-1_36_2221)"/>
<path d="M31.9999 7.5C45.2546 7.5 55.9999 18.2453 55.9999 31.5C55.9999 44.7547 45.2546 55.5 31.9999 55.5C27.8199 55.5 23.8904 54.4314 20.4677 52.5527L7.99994 55.5L11.1962 43.4736C9.16362 39.9497 7.99994 35.8606 7.99994 31.5C7.99994 18.2453 18.7453 7.5 31.9999 7.5ZM31.9999 11.7979C21.1194 11.7979 12.2989 20.6185 12.2988 31.499C12.2988 35.6943 13.6103 39.583 15.8456 42.7783L13.7792 49.8193L21.1454 47.9434C24.2581 50.0026 27.9887 51.2012 31.9999 51.2012V51.2002C42.8806 51.2002 51.7011 42.3797 51.7011 31.499C51.7009 20.6185 42.8805 11.7979 31.9999 11.7979ZM25.4042 19.6562C25.6981 19.6324 25.9684 19.8028 26.0937 20.0693L28.831 25.876C28.9603 26.1506 28.9041 26.4777 28.6894 26.6924L26.6484 28.7324C26.2071 29.1737 26.078 29.861 26.3818 30.4062C27.1264 31.7415 28.1281 33.0276 29.288 34.2109C30.4714 35.3709 31.7574 36.3732 33.0927 37.1172C33.638 37.4212 34.3246 37.2919 34.7665 36.8506L36.8076 34.8096C37.0222 34.5953 37.3485 34.5382 37.623 34.668L43.4296 37.4053C43.6963 37.5306 43.8677 37.8014 43.8437 38.0947C43.781 38.8587 43.4741 40.3901 42.1015 41.7627C38.227 45.6372 31.2691 41.2536 30.9853 41.084C29.2741 40.1647 27.6483 38.9347 26.1064 37.3936C24.5651 35.8522 23.3343 34.225 22.415 32.5137C22.2444 32.2301 17.8613 25.2735 21.7363 21.3984C23.1089 20.0258 24.6402 19.7189 25.4042 19.6562Z" fill="#25D366"/>
</g>
<defs>
<filter id="filter0_i_36_2221" x="0" y="0" width="64" height="65" filterUnits="userSpaceOnUse" color-interpolation-filters="sRGB">
<feFlood flood-opacity="0" result="BackgroundImageFix"/>
<feBlend mode="normal" in="SourceGraphic" in2="BackgroundImageFix" result="shape"/>
<feColorMatrix in="SourceAlpha" type="matrix" values="0 0 0 0 0 0 0 0 0 0 0 0 0 0 0 0 0 0 127 0" result="hardAlpha"/>
<feMorphology radius="1" operator="erode" in="SourceAlpha" result="effect1_innerShadow_36_2221"/>
<feOffset dy="1"/>
<feComposite in2="hardAlpha" operator="arithmetic" k2="-1" k3="1"/>
<feColorMatrix type="matrix" values="0 0 0 0 1 0 0 0 0 1 0 0 0 0 1 0 0 0 0.06 0"/>
<feBlend mode="normal" in2="shape" result="effect1_innerShadow_36_2221"/>
</filter>
</defs>
</svg>
